<?xml version="1.0" encoding="utf-8"?>
<!-- Generator: Adobe Illustrator 16.0.3, SVG Export Plug-In . SVG Version: 6.00 Build 0)  -->
<!DOCTYPE svg PUBLIC "-//W3C//DTD SVG 1.1//EN" "http://www.w3.org/Graphics/SVG/1.1/DTD/svg11.dtd">
<svg version="1.1" id="CBS_Sports_Logo"
	 xmlns="http://www.w3.org/2000/svg" xmlns:xlink="http://www.w3.org/1999/xlink" x="0px" y="0px" width="820px" height="113.25px"
	 viewBox="0 0 820 113.25" enable-background="new 0 0 820 113.25" xml:space="preserve">
<path d="M103.249,56.558c0,12.915-4.552,23.934-13.655,33.036c-9.103,9.104-20.064,13.654-32.903,13.654
	c-12.839,0-23.838-4.551-32.979-13.654C14.571,80.491,10,69.491,10,56.558c0-12.839,4.57-23.801,13.711-32.903
	C32.853,14.552,43.852,10,56.691,10c12.839,0,23.801,4.552,32.903,13.655C98.697,32.757,103.249,43.719,103.249,56.558
	L103.249,56.558z M100.442,56.634c-3.66-8.061-9.311-14.622-16.973-19.667c-8.042-5.462-16.992-8.192-26.835-8.192
	c-9.842,0-18.832,2.73-26.987,8.192c-7.566,5.044-13.181,11.606-16.841,19.667c3.66,8.061,9.274,14.659,16.841,19.799
	c8.136,5.366,17.125,8.06,26.987,8.06c9.861,0,18.793-2.693,26.854-8.06C91.131,71.293,96.781,64.695,100.442,56.634z
	 M81.439,56.558c0,6.828-2.427,12.649-7.245,17.485c-4.836,4.836-10.658,7.244-17.485,7.244c-6.828,0-12.649-2.408-17.485-7.244
	S31.98,63.386,31.98,56.558c0-6.827,2.409-12.63,7.245-17.428c4.836-4.799,10.658-7.188,17.485-7.188
	c6.827,0,12.649,2.389,17.485,7.188C79.012,43.927,81.439,49.731,81.439,56.558z M111.556,56.634
	c0-24.084,19.855-43.941,45.742-43.941c23.478,0,35.52,16.859,35.52,16.859l-12.042,12.043c0,0-8.42-12.043-23.478-12.043
	c-15.058,0-27.082,12.043-27.082,27.082c0,15.039,12.042,27.082,27.082,27.082c15.645,0,24.085-12.043,24.085-12.043l12.042,12.043
	c0,0-12.042,16.859-36.108,16.859C131.411,100.575,111.556,80.7,111.556,56.634z M200.158,14.495h35.521
	c16.859,0,27.081,10.241,27.081,22.264c0,13.237-11.436,17.447-11.436,17.447s15.646,4.21,15.646,20.463
	c0,13.237-10.829,24.085-28.883,24.085h-37.929V14.495z M234.464,47c6.012,0,9.635-3.604,9.635-8.42c0-4.817-3.604-8.42-9.635-8.42
	h-16.252v16.859h16.252V47z M236.873,83.108c7.226,0,11.436-4.21,11.436-10.24s-4.21-10.241-11.436-10.241h-18.661v20.463h18.661
	V83.108z M269.132,87.319l12.043-12.043c0,0,7.225,9.027,19.854,9.027c9.636,0,13.844-4.21,13.844-9.634
	c0-14.451-42.138-7.832-42.138-37.322c0-13.237,11.436-24.673,30.706-24.673c18.659,0,28.293,11.436,28.293,11.436l-12.043,12.043
	c0,0-6.012-7.226-15.645-7.226c-9.029,0-12.65,3.603-12.65,8.42c0,14.451,42.138,7.832,42.138,37.322
	c0,13.845-12.043,25.887-31.898,25.887C279.96,100.575,269.132,87.319,269.132,87.319L269.132,87.319z M359.421,87.319
	l12.043-12.043c0,0,7.226,9.027,19.856,9.027c9.632,0,13.844-4.21,13.844-9.634c0-14.451-42.138-7.832-42.138-37.322
	c0-13.237,11.436-24.673,30.702-24.673c18.662,0,28.297,11.436,28.297,11.436l-12.043,12.043c0,0-6.012-7.226-15.647-7.226
	c-9.027,0-12.647,3.603-12.647,8.42c0,14.451,42.138,7.832,42.138,37.322c0,13.845-12.043,25.887-31.898,25.887
	C370.251,100.575,359.421,87.319,359.421,87.319z M432.36,14.495h35.52c18.055,0,30.098,12.042,30.098,28.295
	c0,16.252-12.043,28.294-30.098,28.294h-17.445v27.689h-18.055V14.495H432.36z M467.272,54.225c7.225,0,12.043-4.816,12.043-11.435
	c0-6.619-4.818-11.436-12.043-11.436h-16.858v22.871H467.272z M503.873,56.634c0-24.084,19.859-43.941,45.742-43.941
	c25.888,0,45.746,19.856,45.746,43.941c0,24.085-19.858,43.941-45.746,43.941C523.733,100.575,503.873,80.7,503.873,56.634z
	 M576.699,56.634c0-15.039-12.043-27.082-27.084-27.082c-15.037,0-27.08,12.043-27.08,27.082c0,15.039,12.043,27.082,27.08,27.082
	C564.656,83.716,576.699,71.673,576.699,56.634L576.699,56.634z M604.863,14.495h37.32c18.055,0,29.491,11.436,29.491,28.295
	c0,19.268-14.45,24.672-14.45,24.672l17.445,31.292h-19.856l-15.037-27.688h-16.861v27.688h-18.052V14.495z M641.576,54.225
	c6.618,0,11.437-4.816,11.437-11.435c0-6.619-4.818-11.436-11.437-11.436h-18.662v22.871H641.576z M701.769,31.354h-24.083V14.495
	h66.204v16.859h-24.086v67.4h-18.052v-67.4H701.769z M745.596,87.319l12.043-12.043c0,0,7.226,9.027,19.855,9.027
	c9.636,0,13.844-4.21,13.844-9.634c0-14.451-42.138-7.832-42.138-37.322c0-13.237,11.436-24.673,30.704-24.673
	c18.662,0,28.294,11.436,28.294,11.436l-12.042,12.043c0,0-6.013-7.226-15.646-7.226c-9.028,0-12.649,3.603-12.649,8.42
	c0,14.451,42.139,7.832,42.139,37.322c0,13.845-12.044,25.887-31.899,25.887C756.425,100.575,745.596,87.319,745.596,87.319
	L745.596,87.319z"/>
</svg>
