<svg xmlns="http://www.w3.org/2000/svg" xmlns:xlink="http://www.w3.org/1999/xlink" zoomAndPan="magnify" preserveAspectRatio="xMidYMid meet" version="1.0" viewBox="193.02 323 439.4 154.68"><defs><g/><clipPath id="9dba71b5a3"><path d="M 194.210938 455.367188 L 394.859375 455.367188 L 394.859375 477.679688 L 194.210938 477.679688 Z M 194.210938 455.367188 " clip-rule="nonzero"/></clipPath><clipPath id="8481f67033"><path d="M 420.976562 328.554688 L 621.621094 328.554688 L 621.621094 350.867188 L 420.976562 350.867188 Z M 420.976562 328.554688 " clip-rule="nonzero"/></clipPath></defs><g clip-path="url(#9dba71b5a3)"><path fill="#175425" d="M 194.210938 455.367188 L 394.847656 455.367188 L 394.847656 477.679688 L 194.210938 477.679688 Z M 194.210938 455.367188 " fill-opacity="1" fill-rule="nonzero"/></g><g clip-path="url(#8481f67033)"><path fill="#175425" d="M 420.976562 328.554688 L 621.613281 328.554688 L 621.613281 350.867188 L 420.976562 350.867188 Z M 420.976562 328.554688 " fill-opacity="1" fill-rule="nonzero"/></g><g fill="#000000" fill-opacity="1"><g transform="translate(187.314808, 415.519319)"><g><path d="M 42.5 1.8125 C 34.894531 1.8125 28.347656 0.5625 22.859375 -1.9375 C 17.378906 -4.445312 13.148438 -8.007812 10.171875 -12.625 C 7.191406 -17.25 5.703125 -22.671875 5.703125 -28.890625 L 25.921875 -28.890625 C 25.921875 -24.578125 27.410156 -21.207031 30.390625 -18.78125 C 33.367188 -16.363281 37.363281 -15.15625 42.375 -15.15625 C 46.6875 -15.15625 50.09375 -16 52.59375 -17.6875 C 55.101562 -19.375 56.359375 -21.726562 56.359375 -24.75 C 56.359375 -27.945312 54.847656 -30.535156 51.828125 -32.515625 C 48.804688 -34.503906 44.097656 -36.191406 37.703125 -37.578125 C 27.078125 -39.828125 19.21875 -43.238281 14.125 -47.8125 C 9.03125 -52.394531 6.484375 -58.359375 6.484375 -65.703125 C 6.484375 -73.992188 9.503906 -80.535156 15.546875 -85.328125 C 21.597656 -90.117188 29.847656 -92.515625 40.296875 -92.515625 C 47.460938 -92.515625 53.679688 -91.285156 58.953125 -88.828125 C 64.222656 -86.367188 68.304688 -82.910156 71.203125 -78.453125 C 74.097656 -74.003906 75.546875 -68.71875 75.546875 -62.59375 L 55.71875 -62.59375 C 55.71875 -66.644531 54.378906 -69.835938 51.703125 -72.171875 C 49.023438 -74.503906 45.3125 -75.671875 40.5625 -75.671875 C 36.238281 -75.671875 32.820312 -74.828125 30.3125 -73.140625 C 27.8125 -71.460938 26.5625 -69.109375 26.5625 -66.078125 C 26.5625 -63.316406 27.941406 -60.984375 30.703125 -59.078125 C 33.472656 -57.179688 38.3125 -55.414062 45.21875 -53.78125 C 56.539062 -51.101562 64.707031 -47.515625 69.71875 -43.015625 C 74.726562 -38.523438 77.234375 -32.695312 77.234375 -25.53125 C 77.234375 -16.976562 74.144531 -10.28125 67.96875 -5.4375 C 61.789062 -0.601562 53.300781 1.8125 42.5 1.8125 Z M 42.5 1.8125 "/></g></g></g><g fill="#000000" fill-opacity="1"><g transform="translate(297.191452, 415.519319)"><g><path d="M 52.484375 1.8125 C 43.328125 1.8125 35.207031 -0.191406 28.125 -4.203125 C 21.039062 -8.222656 15.507812 -13.773438 11.53125 -20.859375 C 7.5625 -27.941406 5.578125 -36.109375 5.578125 -45.359375 C 5.578125 -54.597656 7.5625 -62.757812 11.53125 -69.84375 C 15.507812 -76.925781 21.015625 -82.472656 28.046875 -86.484375 C 35.085938 -90.503906 43.1875 -92.515625 52.34375 -92.515625 C 60.03125 -92.515625 67.070312 -91.046875 73.46875 -88.109375 C 79.863281 -85.171875 85.238281 -81.023438 89.59375 -75.671875 C 93.957031 -70.316406 97.003906 -64.007812 98.734375 -56.75 L 77.484375 -56.75 C 75.753906 -61.757812 72.6875 -65.710938 68.28125 -68.609375 C 63.875 -71.503906 58.78125 -72.953125 53 -72.953125 C 47.90625 -72.953125 43.347656 -71.785156 39.328125 -69.453125 C 35.304688 -67.117188 32.171875 -63.878906 29.921875 -59.734375 C 27.679688 -55.585938 26.5625 -50.796875 26.5625 -45.359375 C 26.5625 -39.910156 27.679688 -35.113281 29.921875 -30.96875 C 32.171875 -26.820312 35.28125 -23.582031 39.25 -21.25 C 43.226562 -18.914062 47.769531 -17.75 52.875 -17.75 C 58.832031 -17.75 64.054688 -19.28125 68.546875 -22.34375 C 73.035156 -25.414062 76.234375 -29.546875 78.140625 -34.734375 L 99.390625 -34.734375 C 97.921875 -27.390625 94.984375 -20.972656 90.578125 -15.484375 C 86.171875 -9.992188 80.707031 -5.738281 74.1875 -2.71875 C 67.664062 0.300781 60.429688 1.8125 52.484375 1.8125 Z M 52.484375 1.8125 "/></g></g></g><g fill="#000000" fill-opacity="1"><g transform="translate(423.923958, 477.088719)"><g><path d="M 10.890625 0 L 10.890625 -90.703125 L 49.625 -90.703125 C 56.539062 -90.703125 62.546875 -89.445312 67.640625 -86.9375 C 72.734375 -84.4375 76.660156 -80.851562 79.421875 -76.1875 C 82.191406 -71.519531 83.578125 -65.945312 83.578125 -59.46875 C 83.578125 -52.820312 82.0625 -47.097656 79.03125 -42.296875 C 76.007812 -37.503906 71.78125 -33.898438 66.34375 -31.484375 L 85.140625 0 L 61.296875 0 L 45.09375 -28.25 L 31.484375 -28.25 L 31.484375 0 Z M 31.234375 -45.609375 L 46.90625 -45.609375 C 52 -45.609375 55.90625 -46.796875 58.625 -49.171875 C 61.351562 -51.546875 62.71875 -54.9375 62.71875 -59.34375 C 62.71875 -63.75 61.351562 -67.140625 58.625 -69.515625 C 55.90625 -71.890625 52 -73.078125 46.90625 -73.078125 L 31.234375 -73.078125 Z M 31.234375 -45.609375 "/></g></g></g><g fill="#000000" fill-opacity="1"><g transform="translate(541.963408, 477.088719)"><g><path d="M 10.890625 0 L 10.890625 -90.703125 L 31.484375 -90.703125 L 31.484375 -55.84375 L 39.265625 -55.84375 C 44.359375 -55.84375 48.09375 -56.660156 50.46875 -58.296875 C 52.84375 -59.941406 54.804688 -62.882812 56.359375 -67.125 L 64.921875 -90.703125 L 87.203125 -90.703125 L 74.640625 -58.4375 C 73.515625 -55.5 72.238281 -52.863281 70.8125 -50.53125 C 69.382812 -48.195312 67.765625 -46.164062 65.953125 -44.4375 L 90.453125 0 L 66.46875 0 L 47.03125 -36.796875 C 46.257812 -36.710938 45.503906 -36.671875 44.765625 -36.671875 C 44.035156 -36.671875 43.238281 -36.671875 42.375 -36.671875 L 31.484375 -36.671875 L 31.484375 0 Z M 10.890625 0 "/></g></g></g></svg>